<mxfile host="app.diagrams.net" modified="2021-03-17T11:41:20.635Z" agent="5.0 (Windows NT 10.0; Win64; x64) AppleWebKit/537.36 (KHTML, like Gecko) Chrome/89.0.4389.82 Safari/537.36" etag="Nh9yhV4LGVqIggPyvpG-" version="14.4.3" type="github">
  <diagram id="jR3GD_LoRLuOm7rPvowl" name="第 1 页">
    <mxGraphModel dx="1662" dy="762" grid="1" gridSize="10" guides="1" tooltips="1" connect="1" arrows="1" fold="1" page="1" pageScale="1" pageWidth="1169" pageHeight="827" math="0" shadow="0">
      <root>
        <mxCell id="0" />
        <mxCell id="1" parent="0" />
        <mxCell id="34AcngcvxbQOvzVJguyR-2" value="" style="endArrow=classic;html=1;" edge="1" parent="1">
          <mxGeometry relative="1" as="geometry">
            <mxPoint x="120" y="390" as="sourcePoint" />
            <mxPoint x="220" y="390" as="targetPoint" />
          </mxGeometry>
        </mxCell>
        <mxCell id="34AcngcvxbQOvzVJguyR-3" value="数据输入" style="edgeLabel;resizable=0;html=1;align=center;verticalAlign=middle;" connectable="0" vertex="1" parent="34AcngcvxbQOvzVJguyR-2">
          <mxGeometry relative="1" as="geometry" />
        </mxCell>
        <mxCell id="34AcngcvxbQOvzVJguyR-6" value="" style="edgeStyle=orthogonalEdgeStyle;rounded=0;orthogonalLoop=1;jettySize=auto;html=1;" edge="1" parent="1" source="34AcngcvxbQOvzVJguyR-4" target="34AcngcvxbQOvzVJguyR-5">
          <mxGeometry relative="1" as="geometry" />
        </mxCell>
        <mxCell id="34AcngcvxbQOvzVJguyR-4" value="根据工艺类型，获取工艺流程结构" style="rounded=1;whiteSpace=wrap;html=1;" vertex="1" parent="1">
          <mxGeometry x="220" y="364" width="100" height="50" as="geometry" />
        </mxCell>
        <mxCell id="34AcngcvxbQOvzVJguyR-10" value="" style="edgeStyle=orthogonalEdgeStyle;rounded=0;orthogonalLoop=1;jettySize=auto;html=1;" edge="1" parent="1" source="34AcngcvxbQOvzVJguyR-5" target="34AcngcvxbQOvzVJguyR-9">
          <mxGeometry relative="1" as="geometry" />
        </mxCell>
        <mxCell id="34AcngcvxbQOvzVJguyR-17" value="" style="edgeStyle=orthogonalEdgeStyle;rounded=0;orthogonalLoop=1;jettySize=auto;html=1;" edge="1" parent="1" source="34AcngcvxbQOvzVJguyR-5" target="34AcngcvxbQOvzVJguyR-16">
          <mxGeometry relative="1" as="geometry">
            <Array as="points">
              <mxPoint x="430" y="470" />
            </Array>
          </mxGeometry>
        </mxCell>
        <mxCell id="34AcngcvxbQOvzVJguyR-5" value="不同设备理论值算法函数" style="rounded=1;whiteSpace=wrap;html=1;" vertex="1" parent="1">
          <mxGeometry x="380" y="364" width="100" height="50" as="geometry" />
        </mxCell>
        <mxCell id="34AcngcvxbQOvzVJguyR-8" value="递归调用" style="text;html=1;strokeColor=none;fillColor=none;align=center;verticalAlign=middle;whiteSpace=wrap;rounded=0;" vertex="1" parent="1">
          <mxGeometry x="490" y="290" width="30" height="20" as="geometry" />
        </mxCell>
        <mxCell id="34AcngcvxbQOvzVJguyR-13" value="" style="edgeStyle=orthogonalEdgeStyle;rounded=0;orthogonalLoop=1;jettySize=auto;html=1;entryX=0.5;entryY=0;entryDx=0;entryDy=0;" edge="1" parent="1" source="34AcngcvxbQOvzVJguyR-9" target="34AcngcvxbQOvzVJguyR-5">
          <mxGeometry relative="1" as="geometry">
            <mxPoint x="590" y="180" as="targetPoint" />
          </mxGeometry>
        </mxCell>
        <mxCell id="34AcngcvxbQOvzVJguyR-15" value="" style="edgeStyle=orthogonalEdgeStyle;rounded=0;orthogonalLoop=1;jettySize=auto;html=1;" edge="1" parent="1" source="34AcngcvxbQOvzVJguyR-9" target="34AcngcvxbQOvzVJguyR-14">
          <mxGeometry relative="1" as="geometry" />
        </mxCell>
        <mxCell id="34AcngcvxbQOvzVJguyR-9" value="设备模型算法" style="rounded=1;whiteSpace=wrap;html=1;" vertex="1" parent="1">
          <mxGeometry x="550" y="260" width="80" height="50" as="geometry" />
        </mxCell>
        <mxCell id="34AcngcvxbQOvzVJguyR-14" value="mysql" style="shape=cylinder;whiteSpace=wrap;html=1;boundedLbl=1;backgroundOutline=1;rounded=1;" vertex="1" parent="1">
          <mxGeometry x="720" y="252.5" width="60" height="65" as="geometry" />
        </mxCell>
        <mxCell id="34AcngcvxbQOvzVJguyR-18" value="" style="edgeStyle=orthogonalEdgeStyle;rounded=0;orthogonalLoop=1;jettySize=auto;html=1;entryX=0.5;entryY=1;entryDx=0;entryDy=0;" edge="1" parent="1" source="34AcngcvxbQOvzVJguyR-16" target="34AcngcvxbQOvzVJguyR-14">
          <mxGeometry relative="1" as="geometry">
            <mxPoint x="760" y="465" as="targetPoint" />
          </mxGeometry>
        </mxCell>
        <mxCell id="34AcngcvxbQOvzVJguyR-16" value="系统总量算法" style="rounded=1;whiteSpace=wrap;html=1;" vertex="1" parent="1">
          <mxGeometry x="550" y="440" width="130" height="50" as="geometry" />
        </mxCell>
      </root>
    </mxGraphModel>
  </diagram>
</mxfile>
